<?xml version="1.0" encoding="UTF-8" standalone="no"?>
<!-- Created with Inkscape (http://www.inkscape.org/) -->

<svg
   width="512"
   height="512"
   viewBox="0 0 135.46666 135.46667"
   version="1.1"
   id="svg1"
   xml:space="preserve"
   inkscape:export-filename="bitmap.png"
   inkscape:export-xdpi="96"
   inkscape:export-ydpi="96"
   inkscape:version="1.3.2 (091e20e, 2023-11-25)"
   sodipodi:docname="favicon.svg"
   xmlns:inkscape="http://www.inkscape.org/namespaces/inkscape"
   xmlns:sodipodi="http://sodipodi.sourceforge.net/DTD/sodipodi-0.dtd"
   xmlns="http://www.w3.org/2000/svg"
   xmlns:svg="http://www.w3.org/2000/svg"><sodipodi:namedview
     id="namedview1"
     pagecolor="#ffffff"
     bordercolor="#000000"
     borderopacity="0.25"
     inkscape:showpageshadow="2"
     inkscape:pageopacity="0.0"
     inkscape:pagecheckerboard="0"
     inkscape:deskcolor="#d1d1d1"
     inkscape:document-units="mm"
     showguides="true"
     inkscape:zoom="0.7332364"
     inkscape:cx="-471.88056"
     inkscape:cy="226.39356"
     inkscape:window-width="2560"
     inkscape:window-height="1368"
     inkscape:window-x="0"
     inkscape:window-y="0"
     inkscape:window-maximized="1"
     inkscape:current-layer="layer1" /><defs
     id="defs1" /><g
     inkscape:label="Layer 1"
     inkscape:groupmode="layer"
     id="layer1"><rect
       style="fill:#212529;fill-opacity:1;stroke-width:6.6595"
       id="rect2"
       width="135.46666"
       height="135.46666"
       x="0"
       y="5.5511151e-17" /><g
       id="g2"
       transform="matrix(6.736842,0,0,6.736842,-603.32231,-671.19813)"
       style="fill:#ffcd39;fill-opacity:1"><path
         style="fill:#ffcd39;fill-opacity:1"
         d="m 98.055393,115.67136 q 0.03307,-0.0992 0.132292,-0.13229 0.09922,-0.0331 0.231511,-0.0331 0.132291,0 0.264583,0 0.132292,0 0.264583,0 0.132292,0 0.264584,0 0.132291,0 0.264583,0 0.132292,0 0.264583,0 0.132292,0 0.231511,0.0331 0.09922,0.0331 0.132287,0.13229 0.0331,0.0992 0.0331,0.23151 0,0.1323 0,0.26459 0,0.13229 0.0331,0.23151 0.0331,0.0992 0.1323,0.13229 0.0992,0.0331 0.23151,0.0331 0.13229,0 0.26458,0 0.13229,0 0.26458,0 0.13229,0 0.26459,0 0.13229,0 0.26458,0 0.13229,0 0.26458,0 0.1323,0 0.23152,0.0331 0.0992,0.0331 0.13229,0.13229 0.0331,0.0992 0.0331,0.23151 0,0.13229 0,0.26458 0,0.1323 0,0.26459 v 0.13229 h -0.13232 -0.13229 -0.1323 -0.13229 -0.13229 -0.1323 -0.13229 -0.13229 -0.13229 -0.13229 -0.13229 -0.1323 -0.13229 -0.13229 -0.13229 -0.13229 -0.13229 -0.132295 -0.132292 -0.132291 -0.132292 -0.132292 -0.132291 -0.132292 -0.132292 -0.132291 -0.132292 -0.132292 -0.132291 -0.132292 -0.132292 -0.132291 v -0.13229 q 0,-0.13229 0,-0.26459 0,-0.13229 0,-0.26458 0,-0.13229 0,-0.26458 0,-0.13229 0,-0.26459 0,-0.13229 0,-0.26458 0,-0.13229 0,-0.26458 0,-0.13229 0.03307,-0.23151"
         id="path24774" /><path
         style="fill:#ffcd39;fill-opacity:1"
         d="m 91.705393,113.5547 q 0.03307,-0.0992 0.132292,-0.13229 0.09922,-0.0331 0.231511,-0.0331 0.132291,0 0.264583,0 0.132292,0 0.264583,0 0.132292,0 0.264584,0 0.132291,0 0.264583,0 0.132292,0 0.264583,0 0.132292,0 0.231511,0.0331 0.09922,0.0331 0.132291,0.13229 0.03307,0.0992 0.03307,0.23151 0,0.13229 0,0.26458 0,0.13229 0.03307,0.23151 0.03307,0.0992 0.132292,0.13229 0.09922,0.0331 0.23151,0.0331 0.132292,0 0.264584,0 0.132291,0 0.23151,0.0331 0.09922,0.0331 0.132292,0.13229 0.03307,0.0992 0.03307,0.23151 0,0.1323 0,0.26459 0,0.13229 0,0.26458 0,0.13229 0,0.26458 0,0.1323 0,0.26459 0,0.13229 0,0.26458 0,0.13229 -0.03307,0.23151 -0.03307,0.0992 -0.132292,0.13229 -0.09922,0.0331 -0.23151,0.0331 -0.132292,0 -0.264584,0 -0.132291,0 -0.23151,0.0331 -0.09922,0.0331 -0.132292,0.1323 -0.03307,0.0992 -0.03307,0.23151 0,0.13229 0,0.26458 0,0.13229 0,0.26458 v 0.13229 h -0.132291 -0.132292 -0.132292 -0.132291 -0.132292 -0.132292 -0.132291 -0.132292 -0.132292 -0.132291 -0.132292 -0.132292 -0.132291 -0.132292 -0.132292 -0.132292 v -0.13229 q 0,-0.13229 0,-0.26458 0,-0.13229 0,-0.26458 0,-0.1323 -0.03307,-0.23151 -0.03307,-0.0992 -0.132292,-0.1323 -0.09922,-0.0331 -0.231511,-0.0331 -0.132291,0 -0.264583,0 -0.132292,0 -0.23151,-0.0331 -0.09922,-0.0331 -0.132292,-0.13229 -0.03307,-0.0992 -0.03307,-0.23151 0,-0.13229 0,-0.26458 0,-0.13229 0,-0.26459 0,-0.13229 0,-0.26458 0,-0.13229 0,-0.26458 0,-0.13229 0,-0.26459 0,-0.13229 0.03307,-0.23151 0.03307,-0.0992 0.132292,-0.13229 0.09922,-0.0331 0.23151,-0.0331 0.132292,0 0.264583,0 0.132292,0 0.231511,-0.0331 0.09922,-0.0331 0.132292,-0.13229 0.03307,-0.0992 0.03307,-0.23151 0,-0.13229 0,-0.26458 0,-0.13229 0.03307,-0.23151"
         id="path24772" /><path
         style="fill:#ffcd39;fill-opacity:1"
         d="m 101.23039,101.91303 q 0.0331,-0.0992 0.13229,-0.13229 0.0992,-0.0331 0.23152,-0.0331 0.13229,0 0.26458,0 0.13229,0 0.26459,0 0.13229,0 0.26458,0 0.13229,0 0.26458,0 0.13229,0 0.26459,0 0.13229,0 0.26458,0 0.13229,0 0.26458,0 0.13229,0 0.26459,0 0.13229,0 0.26458,0 0.13229,0 0.23151,0.0331 0.0992,0.0331 0.13229,0.13229 0.0331,0.0992 0.0331,0.23151 0,0.13229 0,0.26458 0,0.1323 0.0331,0.23151 0.0331,0.0992 0.13229,0.1323 0.0992,0.0331 0.23151,0.0331 0.13229,0 0.26459,0 0.13229,0 0.26458,0 0.13229,0 0.26458,0 0.13229,0 0.26459,0 0.13229,0 0.26458,0 0.13229,0 0.23151,-0.0331 0.0992,-0.0331 0.13229,-0.1323 0.0331,-0.0992 0.0331,-0.23151 0,-0.13229 0,-0.26458 0,-0.13229 0.0331,-0.23151 0.0331,-0.0992 0.13229,-0.13229 0.0992,-0.0331 0.23151,-0.0331 0.1323,0 0.26459,0 0.13229,0 0.26458,0 0.13229,0 0.26458,0 0.1323,0 0.26459,0 0.13229,0 0.26458,0 0.13229,0 0.23151,0.0331 0.0992,0.0331 0.13229,0.13229 0.0331,0.0992 0.0331,0.23151 0,0.13229 0,0.26458 0,0.1323 0,0.26459 0,0.13229 0,0.26458 0,0.13229 0,0.26458 0,0.1323 0,0.26459 0,0.13229 0,0.26458 0,0.13229 0,0.26458 0,0.1323 0,0.26459 0,0.13229 0,0.26458 0,0.13229 0,0.26458 0,0.1323 0,0.26459 0,0.13229 0,0.26458 0,0.13229 0,0.26458 0,0.1323 0,0.26459 0,0.13229 0,0.26458 0,0.13229 0,0.26458 0,0.1323 0,0.26459 0,0.13229 0,0.26458 0,0.13229 0,0.26458 0,0.1323 0,0.26459 0,0.13229 0,0.26458 0,0.13229 0,0.26458 0,0.1323 0,0.26459 0,0.13229 0,0.26458 0,0.13229 0,0.26458 0,0.1323 0,0.26459 0,0.13229 0,0.26458 0,0.13229 0,0.26458 0,0.1323 0,0.26459 0,0.13229 0,0.26458 0,0.13229 0,0.26458 0,0.1323 0,0.26459 0,0.13229 0,0.26458 0,0.13229 0,0.26458 0,0.1323 0,0.26459 0,0.13229 0,0.26458 0,0.13229 0,0.26458 0,0.1323 0,0.26459 0,0.13229 0,0.26458 0,0.13229 0,0.26458 0,0.1323 0,0.26459 0,0.13229 0,0.26458 0,0.13229 0,0.26458 0,0.1323 0,0.26459 0,0.13229 0,0.26458 0,0.13229 0,0.26458 0,0.1323 0,0.26459 0,0.13229 0,0.26458 0,0.13229 0,0.26458 0,0.1323 0,0.26459 0,0.13229 0,0.26458 0,0.13229 0,0.26458 0,0.1323 0,0.26459 0,0.13229 -0.0331,0.23151 -0.0331,0.0992 -0.13229,0.13229 -0.0992,0.0331 -0.23151,0.0331 -0.13229,0 -0.26458,0 -0.13229,0 -0.23151,0.0331 -0.0992,0.0331 -0.13229,0.13229 -0.0331,0.0992 -0.0331,0.23151 0,0.13229 0,0.26458 0,0.1323 0,0.26459 v 0.13229 h -0.1323 -0.13229 -0.13229 -0.13229 -0.13229 -0.13229 -0.1323 -0.13229 -0.13229 -0.13229 -0.13229 -0.13229 -0.1323 -0.13229 -0.13229 -0.13229 -0.13229 -0.13229 -0.1323 -0.13229 -0.13229 -0.13229 -0.13229 -0.13229 -0.1323 -0.13229 -0.13229 -0.13229 -0.13229 -0.1323 -0.13229 -0.13229 v -0.13229 q 0,-0.13229 0,-0.26459 0,-0.13229 0,-0.26458 0,-0.13229 0.0331,-0.23151 0.0331,-0.0992 0.13229,-0.13229 0.0992,-0.0331 0.23151,-0.0331 0.1323,0 0.26459,0 0.13229,0 0.26458,0 0.13229,0 0.26458,0 0.1323,0 0.26459,0 0.13229,0 0.26458,0 0.13229,0 0.23151,-0.0331 0.0992,-0.0331 0.13229,-0.13229 0.0331,-0.0992 0.0331,-0.23151 0,-0.13229 0,-0.26459 0,-0.13229 0.0331,-0.23151 0.0331,-0.0992 0.13229,-0.13229 0.0992,-0.0331 0.23151,-0.0331 0.1323,0 0.26459,0 0.13229,0 0.23151,-0.0331 0.0992,-0.0331 0.13229,-0.13229 0.0331,-0.0992 0.0331,-0.23151 0,-0.13229 0,-0.26458 0,-0.13229 -0.0331,-0.23151 -0.0331,-0.0992 -0.13229,-0.1323 -0.0992,-0.0331 -0.23151,-0.0331 -0.13229,0 -0.26459,0 -0.13229,0 -0.26458,0 -0.13229,0 -0.26458,0 -0.13229,0 -0.26459,0 -0.13229,0 -0.26458,0 -0.13229,0 -0.26458,0 -0.13229,0 -0.26459,0 -0.13229,0 -0.26458,0 -0.13229,0 -0.26458,0 -0.13229,0 -0.26459,0 -0.13229,0 -0.26458,0 -0.13229,0 -0.26458,0 -0.13229,0 -0.26459,0 -0.13229,0 -0.26458,0 -0.13229,0 -0.26458,0 -0.13229,0 -0.26459,0 -0.13229,0 -0.26458,0 -0.13229,0 -0.26459,0 -0.13229,0 -0.26458,0 -0.13229,0 -0.26458,0 -0.13229,0 -0.26459,0 -0.13229,0 -0.26458,0 -0.13229,0 -0.26458,0 -0.132294,0 -0.264586,0 -0.132291,0 -0.264583,0 -0.132292,0 -0.231511,-0.0331 -0.09922,-0.0331 -0.132291,-0.13229 -0.03307,-0.0992 -0.03307,-0.23151 0,-0.13229 0,-0.26458 0,-0.13229 -0.03307,-0.23151 -0.03307,-0.0992 -0.132292,-0.13229 -0.09922,-0.0331 -0.23151,-0.0331 -0.132292,0 -0.264583,0 -0.132292,0 -0.231511,-0.0331 -0.09922,-0.0331 -0.132292,-0.13229 -0.03307,-0.0992 -0.03307,-0.23151 0,-0.1323 0,-0.26459 0,-0.13229 -0.03307,-0.23151 -0.03307,-0.0992 -0.132292,-0.13229 -0.09922,-0.0331 -0.23151,-0.0331 -0.132292,0 -0.264584,0 -0.132291,0 -0.23151,-0.0331 -0.09922,-0.0331 -0.132292,-0.13229 -0.03307,-0.0992 -0.03307,-0.23151 0,-0.13229 0,-0.26459 0,-0.13229 0,-0.26458 0,-0.13229 0,-0.26458 0,-0.13229 0,-0.26459 0,-0.13229 0,-0.26458 0,-0.13229 0,-0.26458 0,-0.13229 0,-0.26458 0,-0.1323 0,-0.26459 0,-0.13229 0,-0.26458 0,-0.13229 0,-0.26459 0,-0.13229 0,-0.26458 0,-0.13229 0,-0.26458 0,-0.13229 0,-0.26459 0,-0.13229 0,-0.26458 0,-0.13229 0,-0.26458 0,-0.13229 0,-0.26459 0,-0.13229 0,-0.26458 0,-0.13229 0,-0.26458 0,-0.13229 0,-0.26459 0,-0.13229 0,-0.26458 0,-0.13229 0,-0.26458 0,-0.13229 0.03307,-0.23151 0.03307,-0.0992 0.132292,-0.13229 0.09922,-0.0331 0.23151,-0.0331 0.132292,0 0.264584,0 0.132291,0 0.23151,-0.0331 0.09922,-0.0331 0.132292,-0.1323 0.03307,-0.0992 0.03307,-0.23151 0,-0.13229 0,-0.26458 0,-0.13229 0,-0.26458 0,-0.13229 0,-0.26459 0,-0.13229 0,-0.26458 0,-0.13229 0,-0.26458 0,-0.13229 0.03307,-0.23151 0.03307,-0.0992 0.132292,-0.13229 0.09922,-0.0331 0.231511,-0.0331 0.132291,0 0.264583,0 0.132292,0 0.23151,-0.0331 0.09922,-0.0331 0.132292,-0.1323 0.03307,-0.0992 0.03307,-0.23151 0,-0.13229 0,-0.26458 0,-0.13229 0.03307,-0.23151 0.03307,-0.0992 0.132291,-0.13229 0.09922,-0.0331 0.231511,-0.0331 0.132292,0 0.264583,0 0.132292,0 0.264586,0 0.13229,0 0.26458,0 0.13229,0 0.26458,0 0.1323,0 0.26459,0 0.13229,0 0.23151,-0.0331 0.0992,-0.0331 0.13229,-0.13229 0.0331,-0.0992 0.0331,-0.23151 0,-0.1323 0,-0.26459 0,-0.13229 0.0331,-0.23151 m 2.74506,11.4763 q 0.13229,0 0.23151,-0.0331 0.0992,-0.0331 0.13229,-0.13229 0.0331,-0.0992 0.0331,-0.23151 0,-0.13229 0,-0.26458 0,-0.13229 0.0331,-0.23151 0.0331,-0.0992 0.13229,-0.13229 0.0992,-0.0331 0.23151,-0.0331 0.13229,0 0.26458,0 0.13229,0 0.23151,-0.0331 0.0992,-0.0331 0.13229,-0.1323 0.0331,-0.0992 0.0331,-0.23151 0,-0.13229 0,-0.26458 0,-0.13229 0,-0.26458 0,-0.13229 0,-0.26459 0,-0.13229 0,-0.26458 0,-0.13229 0,-0.26458 0,-0.13229 0.0331,-0.23151 0.0331,-0.0992 0.1323,-0.13229 0.0992,-0.0331 0.23151,-0.0331 0.13229,0 0.26458,0 0.13229,0 0.23151,-0.0331 0.0992,-0.0331 0.13229,-0.1323 0.0331,-0.0992 0.0331,-0.23151 0,-0.13229 0,-0.26458 0,-0.13229 0,-0.26458 0,-0.13229 0,-0.26459 0,-0.13229 0,-0.26458 0,-0.13229 0,-0.26458 0,-0.13229 0,-0.26459 0,-0.13229 0,-0.26458 0,-0.13229 0,-0.26458 0,-0.13229 0,-0.26459 0,-0.13229 -0.0331,-0.23151 -0.0331,-0.0992 -0.13229,-0.13229 -0.0992,-0.0331 -0.23151,-0.0331 -0.13229,0 -0.26458,0 -0.1323,0 -0.23151,-0.0331 -0.0992,-0.0331 -0.1323,-0.13229 -0.0331,-0.0992 -0.0331,-0.23151 0,-0.13229 0,-0.26458 0,-0.1323 0,-0.26459 0,-0.13229 0,-0.26458 0,-0.13229 0,-0.26458 0,-0.13229 0,-0.26459 0,-0.13229 -0.0331,-0.23151 -0.0331,-0.0992 -0.13229,-0.13229 -0.0992,-0.0331 -0.23151,-0.0331 -0.13229,0 -0.26458,0 -0.13229,0 -0.23151,-0.0331 -0.0992,-0.0331 -0.13229,-0.13229 -0.0331,-0.0992 -0.0331,-0.23151 0,-0.13229 0,-0.26458 0,-0.1323 -0.0331,-0.23151 -0.0331,-0.0992 -0.13229,-0.1323 -0.0992,-0.0331 -0.23151,-0.0331 -0.1323,0 -0.26459,0 -0.13229,0 -0.26458,0 -0.13229,0 -0.26458,0 -0.1323,0 -0.26459,0 -0.13229,0 -0.26458,0 -0.13229,0 -0.26459,0 -0.13229,0 -0.26458,0 -0.13229,0 -0.26459,0 -0.13229,0 -0.26458,0 -0.13229,0 -0.23151,0.0331 -0.0992,0.0331 -0.13229,0.1323 -0.0331,0.0992 -0.0331,0.23151 0,0.13229 0,0.26458 0,0.13229 -0.0331,0.23151 -0.0331,0.0992 -0.13229,0.13229 -0.0992,0.0331 -0.23151,0.0331 -0.13229,0 -0.26459,0 -0.13229,0 -0.23151,0.0331 -0.0992,0.0331 -0.13229,0.13229 -0.0331,0.0992 -0.0331,0.23151 0,0.1323 0,0.26459 0,0.13229 -0.0331,0.23151 -0.0331,0.0992 -0.132289,0.13229 -0.09922,0.0331 -0.231511,0.0331 -0.132291,0 -0.264583,0 -0.132292,0 -0.231511,0.0331 -0.09922,0.0331 -0.132291,0.13229 -0.03307,0.0992 -0.03307,0.23151 0,0.13229 0,0.26458 0,0.1323 0,0.26459 0,0.13229 0,0.26458 0,0.13229 0,0.26458 0,0.1323 0,0.26459 0,0.13229 0,0.26458 0,0.13229 0,0.26458 0,0.1323 0,0.26459 0,0.13229 0,0.26458 0,0.13229 0,0.26458 0,0.1323 0,0.26459 0,0.13229 0,0.26458 0,0.13229 0,0.26458 0,0.1323 0,0.26459 0,0.13229 0,0.26458 0,0.13229 0,0.26458 0,0.1323 0,0.26459 0,0.13229 0.03307,0.23151 0.03307,0.0992 0.132291,0.13229 0.09922,0.0331 0.231511,0.0331 0.132292,0 0.264583,0 0.132292,0 0.231511,0.0331 0.09922,0.0331 0.132289,0.13229 0.0331,0.0992 0.0331,0.23151 0,0.13229 0,0.26458 0,0.1323 0.0331,0.23151 0.0331,0.0992 0.13229,0.1323 0.0992,0.0331 0.23151,0.0331 0.1323,0 0.26459,0 0.13229,0 0.23151,0.0331 0.0992,0.0331 0.13229,0.13229 0.0331,0.0992 0.0331,0.23151 0,0.13229 0,0.26458 0,0.13229 0.0331,0.23151 0.0331,0.0992 0.13229,0.13229 0.0992,0.0331 0.23151,0.0331 0.13229,0 0.26458,0 0.1323,0 0.26459,0 0.13229,0 0.26458,0 0.1323,0 0.26459,0 0.13229,0 0.26458,0 0.13229,0 0.26459,0 0.13229,0 0.26458,0 0.13229,0 0.26458,0 0.13229,0 0.26459,0"
         id="path24760" /></g></g></svg>
