<?xml version="1.0" encoding="UTF-8" standalone="no"?>
<!-- Created with Inkscape (http://www.inkscape.org/) -->

<svg
   width="512"
   height="512"
   viewBox="0 0 135.46666 135.46667"
   version="1.1"
   id="svg1"
   xml:space="preserve"
   inkscape:version="1.3.2 (091e20e, 2023-11-25, custom)"
   sodipodi:docname="favicon_svg.svg"
   xmlns:inkscape="http://www.inkscape.org/namespaces/inkscape"
   xmlns:sodipodi="http://sodipodi.sourceforge.net/DTD/sodipodi-0.dtd"
   xmlns="http://www.w3.org/2000/svg"
   xmlns:svg="http://www.w3.org/2000/svg"><sodipodi:namedview
     id="namedview1"
     pagecolor="#ffffff"
     bordercolor="#000000"
     borderopacity="0.25"
     inkscape:showpageshadow="2"
     inkscape:pageopacity="0.0"
     inkscape:pagecheckerboard="0"
     inkscape:deskcolor="#d1d1d1"
     inkscape:document-units="mm"
     showgrid="true"
     inkscape:zoom="0.35355341"
     inkscape:cx="-752.36158"
     inkscape:cy="374.76658"
     inkscape:window-width="1920"
     inkscape:window-height="1009"
     inkscape:window-x="-8"
     inkscape:window-y="-8"
     inkscape:window-maximized="1"
     inkscape:current-layer="layer1"><inkscape:grid
       id="grid2"
       units="px"
       originx="0"
       originy="0"
       spacingx="0.26458333"
       spacingy="0.26458333"
       empcolor="#0099e5"
       empopacity="0.30196078"
       color="#0099e5"
       opacity="0.14901961"
       empspacing="5"
       dotted="false"
       gridanglex="30"
       gridanglez="30"
       visible="true" /></sodipodi:namedview><defs
     id="defs1" /><g
     inkscape:label="Layer 1"
     inkscape:groupmode="layer"
     id="layer1"><path
       style="fill:#000000"
       id="path2"
       d="" /><g
       id="g1"><rect
         style="fill:#212529;fill-opacity:1;stroke-width:0.274373"
         id="rect2"
         width="135.46666"
         height="135.46666"
         x="0"
         y="0" /><path
         id="rect1452-8-0-8-6-46"
         style="fill:#ffcd39;fill-opacity:1;stroke-width:4.70689"
         d="m 77.409522,19.352381 v 6.450792 H 64.507935 v 6.450796 h -6.450793 v 12.901585 h -6.450793 v 38.704761 h 6.450793 v 6.450795 h 6.450793 v 6.450793 h 12.901587 6.450793 6.450795 6.450793 12.901587 v 6.450797 h -6.45079 v 6.45079 H 96.761903 90.31111 v 6.45079 h 6.450793 6.450797 12.90158 v -6.45079 h 6.4508 V 19.352381 h -12.90159 v 6.450792 H 96.761903 V 19.352381 H 90.31111 Z m 0,12.901588 h 12.901588 6.450793 v 6.450792 h 6.450797 v 12.901588 h 6.45079 V 70.95873 H 103.2127 V 83.860315 H 96.761903 V 90.31111 H 90.31111 83.860315 77.409522 V 83.860315 H 70.95873 V 77.409522 H 64.507935 V 45.155554 h 6.450795 v -6.450793 h 6.450792 z M 19.352381,83.860315 v 6.450795 h -6.450794 v 12.90159 h 6.450794 v 6.45079 h 12.901588 v -6.45079 h 6.450792 V 90.31111 H 32.253969 V 83.860315 Z M 58.057142,103.2127 v 12.90158 h 12.901588 6.450792 6.450793 v -6.45079 H 77.409522 70.95873 v -6.45079 z" /></g></g></svg>
